<svg width="22" height="14" viewBox="0 0 22 14" fill="none" xmlns="http://www.w3.org/2000/svg">
<path d="M16.5 0C14.55 0 12.45 0.316305 11 1.18614C9.55 0.316305 7.45 0 5.5 0C4.05 0 2.51 0.173968 1.22 0.624702C0.49 0.885653 0 1.44709 0 2.08761V11.0074C0 12.0354 1.22 12.7945 2.48 12.5415C3.46 12.3438 4.5 12.2568 5.5 12.2568C7.06 12.2568 8.72 12.4624 10.06 12.9843C10.66 13.2215 11.34 13.2215 11.93 12.9843C13.27 12.4545 14.93 12.2568 16.49 12.2568C17.49 12.2568 18.53 12.3438 19.51 12.5415C20.77 12.8024 21.99 12.0433 21.99 11.0074V2.08761C21.99 1.44709 21.5 0.885653 20.77 0.624702C19.49 0.173968 17.95 0 16.5 0ZM20 10.0664C20 10.5646 19.42 10.9283 18.8 10.8413C18.05 10.7306 17.27 10.6832 16.5 10.6832C14.8 10.6832 12.35 11.1972 11 11.8693V2.76767C12.35 2.09552 14.8 1.58152 16.5 1.58152C17.42 1.58152 18.33 1.65269 19.2 1.80294C19.66 1.88201 20 2.20623 20 2.57788V10.0664Z" fill="url(#paint0_linear_7_59)"/>
<path d="M12.98 5.14788C12.66 5.14788 12.37 4.98973 12.27 4.73668C12.14 4.42828 12.36 4.08826 12.75 3.99337C14.29 3.59799 16.28 3.47146 18.11 3.63752C18.52 3.67706 18.82 3.96964 18.77 4.29386C18.72 4.61807 18.35 4.8553 17.94 4.81576C16.32 4.66551 14.55 4.78413 13.21 5.12415C13.13 5.13206 13.05 5.14788 12.98 5.14788Z" fill="url(#paint1_linear_7_59)"/>
<path d="M12.98 7.2513C12.66 7.2513 12.37 7.09315 12.27 6.84011C12.14 6.53171 12.36 6.19168 12.75 6.09679C14.28 5.70141 16.28 5.57489 18.11 5.74095C18.52 5.78049 18.82 6.07307 18.77 6.39728C18.72 6.72149 18.35 6.95872 17.94 6.91918C16.32 6.76894 14.55 6.88755 13.21 7.22758C13.13 7.24339 13.05 7.2513 12.98 7.2513Z" fill="url(#paint2_linear_7_59)"/>
<path d="M12.98 9.35473C12.66 9.35473 12.37 9.19657 12.27 8.94353C12.14 8.63513 12.36 8.29511 12.75 8.20021C14.28 7.80483 16.28 7.67831 18.11 7.84437C18.52 7.88391 18.82 8.17649 18.77 8.5007C18.72 8.82492 18.35 9.05424 17.94 9.02261C16.32 8.87236 14.55 8.99098 13.21 9.331C13.13 9.34682 13.05 9.35473 12.98 9.35473Z" fill="url(#paint3_linear_7_59)"/>
<defs>
<linearGradient id="paint0_linear_7_59" x1="10.995" y1="0" x2="10.995" y2="13.1622" gradientUnits="userSpaceOnUse">
<stop stop-color="#58ABDF"/>
<stop offset="1" stop-color="#3284B9"/>
</linearGradient>
<linearGradient id="paint1_linear_7_59" x1="15.504" y1="3.56628" x2="15.504" y2="5.14788" gradientUnits="userSpaceOnUse">
<stop stop-color="#58ABDF"/>
<stop offset="1" stop-color="#3284B9"/>
</linearGradient>
<linearGradient id="paint2_linear_7_59" x1="15.504" y1="5.66971" x2="15.504" y2="7.2513" gradientUnits="userSpaceOnUse">
<stop stop-color="#58ABDF"/>
<stop offset="1" stop-color="#3284B9"/>
</linearGradient>
<linearGradient id="paint3_linear_7_59" x1="15.504" y1="7.77313" x2="15.504" y2="9.35473" gradientUnits="userSpaceOnUse">
<stop stop-color="#58ABDF"/>
<stop offset="1" stop-color="#3284B9"/>
</linearGradient>
</defs>
</svg>
