<svg width="20" height="16" viewBox="0 0 20 16" fill="none" xmlns="http://www.w3.org/2000/svg">
<path d="M9.99 0C4.47 0 0 3.54261 0 7.90762C0 12.2726 4.47 15.8152 9.99 15.8152C15.52 15.8152 20 12.2726 20 7.90762C20 3.54261 15.52 0 9.99 0ZM16.92 4.74457H13.97C13.65 3.75612 13.19 2.8072 12.59 1.92946C14.43 2.42764 15.96 3.43981 16.92 4.74457ZM10 1.61315C10.83 2.56207 11.48 3.61378 11.91 4.74457H8.09C8.52 3.61378 9.17 2.56207 10 1.61315ZM2.26 9.48914C2.1 8.98305 2 8.45324 2 7.90762C2 7.36199 2.1 6.83218 2.26 6.32609H5.64C5.56 6.848 5.5 7.3699 5.5 7.90762C5.5 8.44533 5.56 8.96724 5.64 9.48914H2.26ZM3.08 11.0707H6.03C6.35 12.0591 6.81 13.008 7.41 13.8858C5.57 13.3876 4.04 12.3833 3.08 11.0707V11.0707ZM6.03 4.74457H3.08C4.04 3.43191 5.57 2.42764 7.41 1.92946C6.81 2.8072 6.35 3.75612 6.03 4.74457V4.74457ZM10 14.2021C9.17 13.2532 8.52 12.2015 8.09 11.0707H11.91C11.48 12.2015 10.83 13.2532 10 14.2021ZM12.34 9.48914H7.66C7.57 8.96724 7.5 8.44533 7.5 7.90762C7.5 7.3699 7.57 6.84009 7.66 6.32609H12.34C12.43 6.84009 12.5 7.3699 12.5 7.90762C12.5 8.44533 12.43 8.96724 12.34 9.48914ZM12.59 13.8858C13.19 13.008 13.65 12.0591 13.97 11.0707H16.92C15.96 12.3754 14.43 13.3876 12.59 13.8858V13.8858ZM14.36 9.48914C14.44 8.96724 14.5 8.44533 14.5 7.90762C14.5 7.3699 14.44 6.848 14.36 6.32609H17.74C17.9 6.83218 18 7.36199 18 7.90762C18 8.45324 17.9 8.98305 17.74 9.48914H14.36Z" fill="url(#paint0_linear_7_67)"/>
<defs>
<linearGradient id="paint0_linear_7_67" x1="10" y1="0" x2="10" y2="15.8152" gradientUnits="userSpaceOnUse">
<stop stop-color="#58ABDF"/>
<stop offset="1" stop-color="#3284B9"/>
</linearGradient>
</defs>
</svg>
