<svg width="227" height="45" viewBox="0 0 227 45" fill="none" xmlns="http://www.w3.org/2000/svg">
<path d="M42.5859 44H34.207V14C34.207 13.4141 34.0898 12.8672 33.8555 12.3594C33.6406 11.8516 33.3379 11.4121 32.9473 11.041C32.5762 10.6504 32.1367 10.3477 31.6289 10.1328C31.1211 9.91797 30.5742 9.81055 29.9883 9.81055C29.4023 9.81055 28.8555 9.91797 28.3477 10.1328C27.8398 10.3477 27.3906 10.6504 27 11.041C26.6289 11.4121 26.3359 11.8516 26.1211 12.3594C25.9062 12.8672 25.7988 13.4141 25.7988 14V44H17.3906V14C17.3906 13.4141 17.2832 12.8672 17.0684 12.3594C16.8535 11.8516 16.5508 11.4121 16.1602 11.041C15.7891 10.6504 15.3496 10.3477 14.8418 10.1328C14.334 9.91797 13.7871 9.81055 13.2012 9.81055C12.6152 9.81055 12.0684 9.91797 11.5605 10.1328C11.0527 10.3477 10.6035 10.6504 10.2129 11.041C9.8418 11.4121 9.54883 11.8516 9.33398 12.3594C9.11914 12.8672 9.01172 13.4141 9.01172 14V44H0.603516V14C0.603516 12.2617 0.925781 10.6309 1.57031 9.10742C2.23438 7.56445 3.13281 6.22656 4.26562 5.09375C5.41797 3.94141 6.75586 3.04297 8.2793 2.39844C9.82227 1.73438 11.4629 1.40234 13.2012 1.40234C14.7637 1.40234 16.2676 1.68555 17.7129 2.25195C19.1582 2.79883 20.457 3.59961 21.6094 4.6543C22.7617 3.59961 24.0508 2.79883 25.4766 2.25195C26.9219 1.68555 28.4258 1.40234 29.9883 1.40234C31.7266 1.40234 33.3574 1.73438 34.8809 2.39844C36.4238 3.04297 37.7617 3.94141 38.8945 5.09375C40.0469 6.22656 40.9453 7.56445 41.5898 9.10742C42.2539 10.6309 42.5859 12.2617 42.5859 14V44Z" fill="#0E2432"/>
<path d="M61.3945 36.3242C61.707 36.4219 62.0195 36.4902 62.332 36.5293C62.6445 36.5488 62.957 36.5586 63.2695 36.5586C64.0508 36.5586 64.8027 36.4512 65.5254 36.2363C66.248 36.0215 66.9219 35.7188 67.5469 35.3281C68.1914 34.918 68.7578 34.4297 69.2461 33.8633C69.7539 33.2773 70.1641 32.6328 70.4766 31.9297L76.3359 37.8184C75.5938 38.873 74.7344 39.8203 73.7578 40.6602C72.8008 41.5 71.7559 42.2129 70.623 42.7988C69.5098 43.3848 68.3281 43.8242 67.0781 44.1172C65.8477 44.4297 64.5781 44.5859 63.2695 44.5859C61.0625 44.5859 58.9824 44.1758 57.0293 43.3555C55.0957 42.5352 53.3965 41.3926 51.9316 39.9277C50.4863 38.4629 49.3438 36.7246 48.5039 34.7129C47.6641 32.6816 47.2441 30.4551 47.2441 28.0332C47.2441 25.5527 47.6641 23.2871 48.5039 21.2363C49.3438 19.1855 50.4863 17.4375 51.9316 15.9922C53.3965 14.5469 55.0957 13.4238 57.0293 12.623C58.9824 11.8223 61.0625 11.4219 63.2695 11.4219C64.5781 11.4219 65.8574 11.5781 67.1074 11.8906C68.3574 12.2031 69.5391 12.6523 70.6523 13.2383C71.7852 13.8242 72.8398 14.5469 73.8164 15.4062C74.793 16.2461 75.6523 17.1934 76.3945 18.248L61.3945 36.3242ZM65.4961 19.8301C65.125 19.6934 64.7539 19.6055 64.3828 19.5664C64.0312 19.5273 63.6602 19.5078 63.2695 19.5078C62.1758 19.5078 61.1406 19.7129 60.1641 20.123C59.207 20.5137 58.3672 21.0801 57.6445 21.8223C56.9414 22.5645 56.3848 23.4629 55.9746 24.5176C55.5645 25.5527 55.3594 26.7246 55.3594 28.0332C55.3594 28.3262 55.3691 28.6582 55.3887 29.0293C55.4277 29.4004 55.4766 29.7812 55.5352 30.1719C55.6133 30.543 55.7012 30.9043 55.7988 31.2559C55.8965 31.6074 56.0234 31.9199 56.1797 32.1934L65.4961 19.8301Z" fill="#0E2432"/>
<path d="M96.1699 44C94.2363 44 92.4199 43.6387 90.7207 42.916C89.0215 42.1738 87.5273 41.168 86.2383 39.8984C84.9688 38.6094 83.9629 37.1152 83.2207 35.416C82.498 33.7168 82.1367 31.9004 82.1367 29.9668V20.6504H78.2402V12.6816H82.1367V0.142578H90.1055V12.6816H102.234V20.6504H90.1055V29.9668C90.1055 30.8066 90.2617 31.5977 90.5742 32.3398C90.8867 33.0625 91.3164 33.6973 91.8633 34.2441C92.4102 34.791 93.0547 35.2305 93.7969 35.5625C94.5391 35.875 95.3301 36.0312 96.1699 36.0312H102.234V44H96.1699Z" fill="#0E2432"/>
<path d="M131.238 44H105.076L118.289 20.6504H105.076V12.6816H131.238L118.025 36.0312H131.238V44Z" fill="#0E2432"/>
<path d="M143.748 44H135.691V0.142578H143.748V27.7988L155.672 12.6816H164.871L154.471 25.748L164.871 44H155.672L149.314 32.6035L143.748 39.9863V44Z" fill="#0E2432"/>
<path d="M179.52 36.3242C179.832 36.4219 180.145 36.4902 180.457 36.5293C180.77 36.5488 181.082 36.5586 181.395 36.5586C182.176 36.5586 182.928 36.4512 183.65 36.2363C184.373 36.0215 185.047 35.7188 185.672 35.3281C186.316 34.918 186.883 34.4297 187.371 33.8633C187.879 33.2773 188.289 32.6328 188.602 31.9297L194.461 37.8184C193.719 38.873 192.859 39.8203 191.883 40.6602C190.926 41.5 189.881 42.2129 188.748 42.7988C187.635 43.3848 186.453 43.8242 185.203 44.1172C183.973 44.4297 182.703 44.5859 181.395 44.5859C179.188 44.5859 177.107 44.1758 175.154 43.3555C173.221 42.5352 171.521 41.3926 170.057 39.9277C168.611 38.4629 167.469 36.7246 166.629 34.7129C165.789 32.6816 165.369 30.4551 165.369 28.0332C165.369 25.5527 165.789 23.2871 166.629 21.2363C167.469 19.1855 168.611 17.4375 170.057 15.9922C171.521 14.5469 173.221 13.4238 175.154 12.623C177.107 11.8223 179.188 11.4219 181.395 11.4219C182.703 11.4219 183.982 11.5781 185.232 11.8906C186.482 12.2031 187.664 12.6523 188.777 13.2383C189.91 13.8242 190.965 14.5469 191.941 15.4062C192.918 16.2461 193.777 17.1934 194.52 18.248L179.52 36.3242ZM183.621 19.8301C183.25 19.6934 182.879 19.6055 182.508 19.5664C182.156 19.5273 181.785 19.5078 181.395 19.5078C180.301 19.5078 179.266 19.7129 178.289 20.123C177.332 20.5137 176.492 21.0801 175.77 21.8223C175.066 22.5645 174.51 23.4629 174.1 24.5176C173.689 25.5527 173.484 26.7246 173.484 28.0332C173.484 28.3262 173.494 28.6582 173.514 29.0293C173.553 29.4004 173.602 29.7812 173.66 30.1719C173.738 30.543 173.826 30.9043 173.924 31.2559C174.021 31.6074 174.148 31.9199 174.305 32.1934L183.621 19.8301Z" fill="#0E2432"/>
<path d="M206.561 44H198.562V12.623H200.496L203.133 16.3438C204.422 15.1719 205.887 14.2734 207.527 13.6484C209.168 13.0039 210.867 12.6816 212.625 12.6816H219.686V20.6504H212.625C211.785 20.6504 210.994 20.8066 210.252 21.1191C209.51 21.4316 208.865 21.8613 208.318 22.4082C207.771 22.9551 207.342 23.5996 207.029 24.3418C206.717 25.084 206.561 25.875 206.561 26.7148V44Z" fill="#0E2432"/>
<path d="M227 35C227 38.3137 224.314 41 221 41C217.686 41 215 38.3137 215 35C215 31.6863 217.686 29 221 29C224.314 29 227 31.6863 227 35Z" fill="#7B0828"/>
</svg>
