<svg width="23" height="23" viewBox="0 0 23 23" fill="none" xmlns="http://www.w3.org/2000/svg">
<path d="M21.0938 22.5C18.5521 22.5 16.026 21.875 13.5156 20.625C11.0052 19.375 8.75 17.75 6.75 15.75C4.75 13.75 3.125 11.4948 1.875 8.98438C0.625 6.47396 0 3.94792 0 1.40625C0 1.01042 0.135417 0.677083 0.40625 0.40625C0.677083 0.135417 1.01042 0 1.40625 0H5.78125C6.07292 0 6.32813 0.0989583 6.54688 0.296875C6.76563 0.494792 6.90625 0.760417 6.96875 1.09375L7.8125 5.03125C7.85417 5.32292 7.84896 5.58854 7.79688 5.82812C7.74479 6.06771 7.63542 6.27083 7.46875 6.4375L4.34375 9.59375C5.51042 11.5313 6.81771 13.2188 8.26563 14.6563C9.71354 16.0938 11.3542 17.3125 13.1875 18.3125L16.1563 15.25C16.3646 15.0208 16.6042 14.8594 16.875 14.7656C17.1458 14.6719 17.4167 14.6562 17.6875 14.7187L21.4062 15.5313C21.7188 15.5938 21.9792 15.75 22.1875 16C22.3958 16.25 22.5 16.5417 22.5 16.875V21.0938C22.5 21.4896 22.3646 21.8229 22.0937 22.0937C21.8229 22.3646 21.4896 22.5 21.0938 22.5ZM3.40625 7.875L5.9375 5.3125L5.21875 1.875H1.875C1.875 2.6875 2 3.57812 2.25 4.54687C2.5 5.51562 2.88542 6.625 3.40625 7.875ZM20.625 20.625V17.2813L17.4062 16.625L14.9375 19.2188C15.7917 19.6146 16.7187 19.9375 17.7187 20.1875C18.7187 20.4375 19.6875 20.5833 20.625 20.625Z" fill="url(#paint0_linear_8_17)"/>
<defs>
<linearGradient id="paint0_linear_8_17" x1="11.25" y1="0" x2="11.25" y2="22.5" gradientUnits="userSpaceOnUse">
<stop stop-color="#58ABDF"/>
<stop offset="1" stop-color="#3284B9"/>
</linearGradient>
</defs>
</svg>
